# xmcd
#
# Track frame offsets:
#	150
#	14855
#	30254
#	49695
#	75485
#	103650
#	121257
#	146810
#	165707
#	209485
#	227672
#	256447
#
# Disc length: 3776 seconds
#
# Revision: 1
# Processed by: cddbd v1.5.2PL0 Copyright (c) Steve Scherf et al.
# Submitted via: audiograbber 1.83.01
#
DISCID=a00ebe0c
DTITLE=The Blue Junction - Live - Out Of Love
DYEAR=2007
DGENRE=Blues
TTITLE0=Alley Tale
TTITLE1=The Good Things Are Hard To See
TTITLE2=Diamond On A Dump
TTITLE3=Don't Touch Me
TTITLE4=Out Of Love
TTITLE5=Done Foolin'
TTITLE6=Sheltered Roads
TTITLE7=It's Up To You
TTITLE8=Workin' Too Much
TTITLE9=The Journey
TTITLE10=Got A Mind To Travel
TTITLE11=Talkin' Eyes
EXTD=
EXTT0=
EXTT1=
EXTT2=
EXTT3=
EXTT4=
EXTT5=
EXTT6=
EXTT7=
EXTT8=
EXTT9=
EXTT10=
EXTT11=
PLAYORDER=
